<!DOCTYPE svg PUBLIC "-//W3C//DTD SVG 1.1//EN" "http://www.w3.org/Graphics/SVG/1.1/DTD/svg11.dtd">
<!-- Uploaded to: SVG Repo, www.svgrepo.com, Transformed by: SVG Repo Mixer Tools -->
<svg fill="#ffffff" width="800px" height="800px" viewBox="0 0 24 24" id="menu-food" data-name="Flat Line" xmlns="http://www.w3.org/2000/svg" class="icon flat-line">
<g id="SVGRepo_bgCarrier" stroke-width="0"/>
<g id="SVGRepo_tracerCarrier" stroke-linecap="round" stroke-linejoin="round"/>
<g id="SVGRepo_iconCarrier">
<path id="secondary" d="M6,5H17a1,1,0,0,1,1,1V20a1,1,0,0,1-1,1H6a0,0,0,0,1,0,0V5A0,0,0,0,1,6,5Z" style="fill: #000000; stroke-width: 2;"/>
<path id="primary" d="M10,9h4m-4,4h4m3,8H6V5H17a1,1,0,0,1,1,1V20A1,1,0,0,1,17,21ZM16,5V4.12A1,1,0,0,0,14.8,3L6,5Z" style="fill: none; stroke: #ffffff; stroke-linecap: round; stroke-linejoin: round; stroke-width: 2;"/>
</g>
</svg>